<mxfile host="app.diagrams.net" agent="Mozilla/5.0 (Windows NT 10.0; Win64; x64) AppleWebKit/537.36 (KHTML, like Gecko) Chrome/127.0.0.0 Safari/537.36 OPR/113.0.0.0" version="24.7.17">
  <diagram name="Страница — 1" id="ndeBLU3Q60oUS92ifmL3">
    <mxGraphModel dx="1050" dy="581" grid="1" gridSize="10" guides="1" tooltips="1" connect="1" arrows="1" fold="1" page="1" pageScale="1" pageWidth="10000" pageHeight="10000" math="0" shadow="0">
      <root>
        <mxCell id="0" />
        <mxCell id="1" parent="0" />
        <mxCell id="IR6croPydO8HilPU1B2K-1" value="&lt;p style=&quot;margin:0px;margin-top:4px;text-align:center;&quot;&gt;&lt;i&gt;&amp;lt;&amp;lt;Interface&amp;gt;&amp;gt;&lt;/i&gt;&lt;br&gt;&lt;b&gt;IBonus&lt;/b&gt;&lt;/p&gt;&lt;hr size=&quot;1&quot; style=&quot;border-style:solid;&quot;&gt;&lt;p style=&quot;margin:0px;margin-left:4px;&quot;&gt;+ cost1hour: Type&lt;br&gt;+calc(number_hours: float)&lt;/p&gt;" style="verticalAlign=top;align=left;overflow=fill;html=1;whiteSpace=wrap;" parent="1" vertex="1">
          <mxGeometry x="610" y="245" width="120" height="105" as="geometry" />
        </mxCell>
        <mxCell id="IR6croPydO8HilPU1B2K-2" value="&lt;p style=&quot;margin:0px;margin-top:4px;text-align:center;&quot;&gt;&lt;i&gt;&amp;lt;&amp;lt;Interface&amp;gt;&amp;gt;&lt;/i&gt;&lt;br&gt;&lt;b&gt;IFactory&lt;/b&gt;&lt;/p&gt;&lt;hr size=&quot;1&quot; style=&quot;border-style:solid;&quot;&gt;&lt;p style=&quot;margin:0px;margin-left:4px;&quot;&gt;+ getA(cost1hour: float)&lt;br&gt;&lt;/p&gt;&lt;p style=&quot;margin:0px;margin-left:4px;&quot;&gt;&lt;span style=&quot;background-color: initial;&quot;&gt;+ getB(cost1hour: float, x: float)&lt;br&gt;&lt;/span&gt;&lt;/p&gt;&lt;p style=&quot;margin:0px;margin-left:4px;&quot;&gt;&lt;span style=&quot;background-color: initial;&quot;&gt;+ getC(cost1hour: float, x: float, y: float)&lt;/span&gt;&amp;nbsp;&lt;br&gt;&lt;/p&gt;" style="verticalAlign=top;align=left;overflow=fill;html=1;whiteSpace=wrap;" parent="1" vertex="1">
          <mxGeometry x="1135" y="190" width="180" height="100" as="geometry" />
        </mxCell>
        <mxCell id="IR6croPydO8HilPU1B2K-3" value="&lt;p style=&quot;margin:0px;margin-top:4px;text-align:center;&quot;&gt;&lt;b&gt;SalaryForL1&lt;/b&gt;&lt;/p&gt;&lt;hr size=&quot;1&quot; style=&quot;border-style:solid;&quot;&gt;&lt;p style=&quot;margin:0px;margin-left:4px;&quot;&gt;&lt;/p&gt;&lt;p style=&quot;margin: 0px 0px 0px 4px;&quot;&gt;+ getA(cost1hour: float) =&amp;gt; BonusA1(cost1hour: float)&amp;nbsp;&lt;br&gt;&lt;/p&gt;&lt;p style=&quot;margin: 0px 0px 0px 4px;&quot;&gt;&lt;span style=&quot;background-color: initial;&quot;&gt;+ getB(cost1hour: float, x: float)&amp;nbsp;&lt;/span&gt;&lt;span style=&quot;background-color: initial;&quot;&gt;=&amp;gt; BonusB1&lt;/span&gt;&lt;span style=&quot;background-color: initial;&quot;&gt;(cost1hour: float, x: float)&lt;/span&gt;&lt;span style=&quot;background-color: initial;&quot;&gt;&lt;br&gt;&lt;/span&gt;&lt;/p&gt;&lt;p style=&quot;margin: 0px 0px 0px 4px;&quot;&gt;&lt;span style=&quot;background-color: initial;&quot;&gt;+ getC(cost1hour: float, x: float, y: float)&amp;nbsp;&lt;/span&gt;&lt;span style=&quot;background-color: initial;&quot;&gt;=&amp;gt; BonusC1&lt;/span&gt;&lt;span style=&quot;background-color: initial;&quot;&gt;(cost1hour: float, x: float, y: float)&lt;/span&gt;&lt;/p&gt;" style="verticalAlign=top;align=left;overflow=fill;html=1;whiteSpace=wrap;" parent="1" vertex="1">
          <mxGeometry x="1030" y="340" width="390" height="90" as="geometry" />
        </mxCell>
        <mxCell id="IR6croPydO8HilPU1B2K-4" value="&lt;p style=&quot;margin: 4px 0px 0px; text-align: center;&quot;&gt;&lt;b&gt;SalaryForL2&lt;/b&gt;&lt;/p&gt;&lt;hr size=&quot;1&quot; style=&quot;border-style:solid;&quot;&gt;&lt;p style=&quot;margin:0px;margin-left:4px;&quot;&gt;+ &lt;span style=&quot;background-color: initial;&quot;&gt;&lt;/span&gt;&lt;span style=&quot;background-color: initial;&quot; class=&quot;hljs-type&quot;&gt;A: float&lt;/span&gt;&lt;span style=&quot;background-color: initial;&quot;&gt; { get; set; }&lt;/span&gt;&lt;/p&gt;&lt;hr size=&quot;1&quot; style=&quot;border-style:solid;&quot;&gt;&lt;p style=&quot;margin: 0px 0px 0px 4px;&quot;&gt;+ getA(cost1hour: float) =&amp;gt; BonusA1(cost1hour: float, A: float)&amp;nbsp;&lt;br&gt;&lt;/p&gt;&lt;p style=&quot;margin: 0px 0px 0px 4px;&quot;&gt;&lt;span style=&quot;background-color: initial;&quot;&gt;+ getB(cost1hour: float, x: float)&amp;nbsp;&lt;/span&gt;&lt;span style=&quot;background-color: initial;&quot;&gt;=&amp;gt; BonusB1&lt;/span&gt;&lt;span style=&quot;background-color: initial;&quot;&gt;(cost1hour: float, x: float&lt;/span&gt;&lt;span style=&quot;background-color: initial;&quot;&gt;, A: float&lt;/span&gt;&lt;span style=&quot;background-color: initial;&quot;&gt;)&lt;/span&gt;&lt;/p&gt;&lt;p style=&quot;margin: 0px 0px 0px 4px;&quot;&gt;&lt;span style=&quot;background-color: initial;&quot;&gt;+ getC(cost1hour: float, x: float, y: float)&amp;nbsp;&lt;/span&gt;&lt;span style=&quot;background-color: initial;&quot;&gt;=&amp;gt; BonusC1&lt;/span&gt;&lt;span style=&quot;background-color: initial;&quot;&gt;(cost1hour: float, x: float, y: float&lt;/span&gt;&lt;span style=&quot;background-color: initial;&quot;&gt;, A: float&lt;/span&gt;&lt;span style=&quot;background-color: initial;&quot;&gt;)&lt;/span&gt;&lt;/p&gt;" style="verticalAlign=top;align=left;overflow=fill;html=1;whiteSpace=wrap;" parent="1" vertex="1">
          <mxGeometry x="1030" y="447" width="430" height="123" as="geometry" />
        </mxCell>
        <mxCell id="IR6croPydO8HilPU1B2K-5" value="&lt;p style=&quot;margin: 4px 0px 0px; text-align: center;&quot;&gt;&lt;b&gt;SalaryForL3&lt;/b&gt;&lt;/p&gt;&lt;hr size=&quot;1&quot; style=&quot;border-style:solid;&quot;&gt;&lt;p style=&quot;margin:0px;margin-left:4px;&quot;&gt;+ &lt;span style=&quot;background-color: initial;&quot;&gt;&lt;/span&gt;&lt;span style=&quot;background-color: initial;&quot; class=&quot;hljs-type&quot;&gt;A: float&lt;/span&gt;&lt;span style=&quot;background-color: initial;&quot;&gt; { get; set; }&lt;br&gt;&lt;/span&gt;+ b&lt;span style=&quot;background-color: initial;&quot;&gt;:&amp;nbsp;&lt;/span&gt;&lt;span style=&quot;background-color: initial;&quot; class=&quot;hljs-type&quot;&gt;float&lt;/span&gt;&lt;span style=&quot;background-color: initial;&quot;&gt;&amp;nbsp;{ get; set; }&lt;/span&gt;&lt;span style=&quot;background-color: initial;&quot;&gt;&lt;br&gt;&lt;/span&gt;&lt;/p&gt;&lt;hr size=&quot;1&quot; style=&quot;border-style:solid;&quot;&gt;&lt;p style=&quot;margin: 0px 0px 0px 4px;&quot;&gt;+ getA(cost1hour: float) =&amp;gt; BonusA1(cost1hour: float, A: float&lt;span style=&quot;background-color: initial;&quot;&gt;, B: float&lt;/span&gt;&lt;span style=&quot;background-color: initial;&quot;&gt;)&amp;nbsp;&lt;/span&gt;&lt;/p&gt;&lt;p style=&quot;margin: 0px 0px 0px 4px;&quot;&gt;&lt;span style=&quot;background-color: initial;&quot;&gt;+ getB(cost1hour: float, x: float)&amp;nbsp;&lt;/span&gt;&lt;span style=&quot;background-color: initial;&quot;&gt;=&amp;gt; BonusB1&lt;/span&gt;&lt;span style=&quot;background-color: initial;&quot;&gt;(cost1hour: float, x: float&lt;/span&gt;&lt;span style=&quot;background-color: initial;&quot;&gt;, A: float&lt;/span&gt;&lt;span style=&quot;background-color: initial;&quot;&gt;, B: float&lt;/span&gt;&lt;span style=&quot;background-color: initial;&quot;&gt;)&lt;/span&gt;&lt;/p&gt;&lt;p style=&quot;margin: 0px 0px 0px 4px;&quot;&gt;&lt;span style=&quot;background-color: initial;&quot;&gt;+ getC(cost1hour: float, x: float, y: float)&amp;nbsp;&lt;/span&gt;&lt;span style=&quot;background-color: initial;&quot;&gt;=&amp;gt; BonusC1&lt;/span&gt;&lt;span style=&quot;background-color: initial;&quot;&gt;(cost1hour: float, x: float, y: float&lt;/span&gt;&lt;span style=&quot;background-color: initial;&quot;&gt;, A: float&lt;/span&gt;&lt;span style=&quot;background-color: initial;&quot;&gt;, B: float&lt;/span&gt;&lt;span style=&quot;background-color: initial;&quot;&gt;)&lt;/span&gt;&lt;/p&gt;" style="verticalAlign=top;align=left;overflow=fill;html=1;whiteSpace=wrap;" parent="1" vertex="1">
          <mxGeometry x="1030" y="590" width="475" height="133" as="geometry" />
        </mxCell>
        <mxCell id="IR6croPydO8HilPU1B2K-6" value="" style="endArrow=block;dashed=1;endFill=0;endSize=12;html=1;rounded=0;exitX=0.5;exitY=0;exitDx=0;exitDy=0;entryX=0.5;entryY=1;entryDx=0;entryDy=0;" parent="1" source="IR6croPydO8HilPU1B2K-3" target="IR6croPydO8HilPU1B2K-2" edge="1">
          <mxGeometry width="160" relative="1" as="geometry">
            <mxPoint x="1340" y="330" as="sourcePoint" />
            <mxPoint x="1180" y="330" as="targetPoint" />
          </mxGeometry>
        </mxCell>
        <mxCell id="IR6croPydO8HilPU1B2K-8" value="&lt;p style=&quot;margin:0px;margin-top:4px;text-align:center;&quot;&gt;&lt;b&gt;BonusA2&lt;/b&gt;&lt;/p&gt;&lt;hr size=&quot;1&quot; style=&quot;border-style:solid;&quot;&gt;&lt;p style=&quot;margin:0px;margin-left:4px;&quot;&gt;+ cost1hour: float { get; set; }&lt;br&gt;+ A: float {get; set; }&lt;/p&gt;&lt;hr size=&quot;1&quot; style=&quot;border-style:solid;&quot;&gt;&lt;p style=&quot;margin:0px;margin-left:4px;&quot;&gt;+ calc(cost1hour: float)&lt;/p&gt;" style="verticalAlign=top;align=left;overflow=fill;html=1;whiteSpace=wrap;" parent="1" vertex="1">
          <mxGeometry x="605" y="470" width="130" height="110" as="geometry" />
        </mxCell>
        <mxCell id="IR6croPydO8HilPU1B2K-9" value="&lt;p style=&quot;margin:0px;margin-top:4px;text-align:center;&quot;&gt;&lt;b&gt;BonusB2&lt;/b&gt;&lt;/p&gt;&lt;hr size=&quot;1&quot; style=&quot;border-style:solid;&quot;&gt;&lt;p style=&quot;margin:0px;margin-left:4px;&quot;&gt;+ cost1hour: float { get; set; }&lt;br&gt;+ x: float { get; set; }&lt;br&gt;+ a: float { get; set; }&lt;/p&gt;&lt;hr size=&quot;1&quot; style=&quot;border-style:solid;&quot;&gt;&lt;p style=&quot;margin:0px;margin-left:4px;&quot;&gt;+ calc(cost1hour: float)&lt;/p&gt;" style="verticalAlign=top;align=left;overflow=fill;html=1;whiteSpace=wrap;" parent="1" vertex="1">
          <mxGeometry x="605" y="592" width="130" height="118" as="geometry" />
        </mxCell>
        <mxCell id="IR6croPydO8HilPU1B2K-10" value="&lt;p style=&quot;margin:0px;margin-top:4px;text-align:center;&quot;&gt;&lt;b&gt;BonusC2&lt;/b&gt;&lt;/p&gt;&lt;hr size=&quot;1&quot; style=&quot;border-style:solid;&quot;&gt;&lt;p style=&quot;margin:0px;margin-left:4px;&quot;&gt;+ cost1hour: float { get; set; }&lt;br&gt;+ x: float { get; set; }&lt;br&gt;+ y: float { get; set; }&lt;br&gt;+ A: float { get; set; }&lt;/p&gt;&lt;hr size=&quot;1&quot; style=&quot;border-style:solid;&quot;&gt;&lt;p style=&quot;margin:0px;margin-left:4px;&quot;&gt;+ calc(cost1hour: float)&lt;/p&gt;" style="verticalAlign=top;align=left;overflow=fill;html=1;whiteSpace=wrap;" parent="1" vertex="1">
          <mxGeometry x="605" y="720" width="130" height="140" as="geometry" />
        </mxCell>
        <mxCell id="IR6croPydO8HilPU1B2K-11" value="&lt;p style=&quot;margin:0px;margin-top:4px;text-align:center;&quot;&gt;&lt;b&gt;BonusA3&lt;/b&gt;&lt;/p&gt;&lt;hr size=&quot;1&quot; style=&quot;border-style:solid;&quot;&gt;&lt;p style=&quot;margin:0px;margin-left:4px;&quot;&gt;+ cost1hour: float { get; set; }&lt;br&gt;+ A: float {get; set; }&lt;br&gt;+ B: float {get; set; }&lt;br&gt;&lt;/p&gt;&lt;hr size=&quot;1&quot; style=&quot;border-style:solid;&quot;&gt;&lt;p style=&quot;margin:0px;margin-left:4px;&quot;&gt;+ calc(cost1hour: float)&lt;/p&gt;" style="verticalAlign=top;align=left;overflow=fill;html=1;whiteSpace=wrap;" parent="1" vertex="1">
          <mxGeometry x="745" y="470" width="130" height="120" as="geometry" />
        </mxCell>
        <mxCell id="IR6croPydO8HilPU1B2K-12" value="&lt;p style=&quot;margin:0px;margin-top:4px;text-align:center;&quot;&gt;&lt;b&gt;BonusB3&lt;/b&gt;&lt;/p&gt;&lt;hr size=&quot;1&quot; style=&quot;border-style:solid;&quot;&gt;&lt;p style=&quot;margin:0px;margin-left:4px;&quot;&gt;+ cost1hour: float { get; set; }&lt;br&gt;+ x: float { get; set; }&lt;br&gt;+ A: float {get; set; }&lt;br&gt;+ B: float {get; set; }&lt;br&gt;&lt;/p&gt;&lt;hr size=&quot;1&quot; style=&quot;border-style:solid;&quot;&gt;&lt;p style=&quot;margin:0px;margin-left:4px;&quot;&gt;+ calc(cost1hour: float)&lt;/p&gt;" style="verticalAlign=top;align=left;overflow=fill;html=1;whiteSpace=wrap;" parent="1" vertex="1">
          <mxGeometry x="745" y="603" width="130" height="137" as="geometry" />
        </mxCell>
        <mxCell id="IR6croPydO8HilPU1B2K-13" value="&lt;p style=&quot;margin:0px;margin-top:4px;text-align:center;&quot;&gt;&lt;b&gt;BonusC3&lt;/b&gt;&lt;/p&gt;&lt;hr size=&quot;1&quot; style=&quot;border-style:solid;&quot;&gt;&lt;p style=&quot;margin:0px;margin-left:4px;&quot;&gt;+ cost1hour: float { get; set; }&lt;br&gt;+ x: float { get; set; }&lt;br&gt;+ y: float { get; set; }&lt;br&gt;+ A: float {get; set; }&lt;br&gt;+ B: float {get; set; }&lt;br&gt;&lt;/p&gt;&lt;hr size=&quot;1&quot; style=&quot;border-style:solid;&quot;&gt;&lt;p style=&quot;margin:0px;margin-left:4px;&quot;&gt;+ calc(cost1hour: float)&lt;/p&gt;" style="verticalAlign=top;align=left;overflow=fill;html=1;whiteSpace=wrap;" parent="1" vertex="1">
          <mxGeometry x="745" y="753" width="130" height="147" as="geometry" />
        </mxCell>
        <mxCell id="IR6croPydO8HilPU1B2K-14" value="&lt;p style=&quot;margin:0px;margin-top:4px;text-align:center;&quot;&gt;&lt;b&gt;BonusA1&lt;/b&gt;&lt;/p&gt;&lt;hr size=&quot;1&quot; style=&quot;border-style:solid;&quot;&gt;&lt;p style=&quot;margin:0px;margin-left:4px;&quot;&gt;+ cost1hour: float { get; set; }&lt;/p&gt;&lt;hr size=&quot;1&quot; style=&quot;border-style:solid;&quot;&gt;&lt;p style=&quot;margin:0px;margin-left:4px;&quot;&gt;+ calc(cost1hour: float)&lt;/p&gt;" style="verticalAlign=top;align=left;overflow=fill;html=1;whiteSpace=wrap;" parent="1" vertex="1">
          <mxGeometry x="465" y="470" width="130" height="90" as="geometry" />
        </mxCell>
        <mxCell id="IR6croPydO8HilPU1B2K-15" value="&lt;p style=&quot;margin:0px;margin-top:4px;text-align:center;&quot;&gt;&lt;b&gt;BonusB1&lt;/b&gt;&lt;/p&gt;&lt;hr size=&quot;1&quot; style=&quot;border-style:solid;&quot;&gt;&lt;p style=&quot;margin:0px;margin-left:4px;&quot;&gt;+ cost1hour: float { get; set; }&lt;br&gt;+ x: float { get; set; }&lt;br&gt;&lt;/p&gt;&lt;hr size=&quot;1&quot; style=&quot;border-style:solid;&quot;&gt;&lt;p style=&quot;margin:0px;margin-left:4px;&quot;&gt;+ calc(cost1hour: float)&lt;/p&gt;" style="verticalAlign=top;align=left;overflow=fill;html=1;whiteSpace=wrap;" parent="1" vertex="1">
          <mxGeometry x="465" y="573" width="130" height="107" as="geometry" />
        </mxCell>
        <mxCell id="IR6croPydO8HilPU1B2K-16" value="&lt;p style=&quot;margin:0px;margin-top:4px;text-align:center;&quot;&gt;&lt;b&gt;BonusC1&lt;/b&gt;&lt;/p&gt;&lt;hr size=&quot;1&quot; style=&quot;border-style:solid;&quot;&gt;&lt;p style=&quot;margin:0px;margin-left:4px;&quot;&gt;+ cost1hour: float { get; set; }&lt;br&gt;+ x: float { get; set; }&lt;br&gt;+ y: float { get; set; }&lt;br&gt;&lt;/p&gt;&lt;hr size=&quot;1&quot; style=&quot;border-style:solid;&quot;&gt;&lt;p style=&quot;margin:0px;margin-left:4px;&quot;&gt;+ calc(cost1hour: float)&lt;/p&gt;" style="verticalAlign=top;align=left;overflow=fill;html=1;whiteSpace=wrap;" parent="1" vertex="1">
          <mxGeometry x="465" y="700" width="130" height="120" as="geometry" />
        </mxCell>
        <mxCell id="IR6croPydO8HilPU1B2K-18" value="&lt;p style=&quot;margin:0px;margin-top:4px;text-align:center;&quot;&gt;&lt;b&gt;Employee&lt;/b&gt;&lt;/p&gt;&lt;hr size=&quot;1&quot; style=&quot;border-style:solid;&quot;&gt;&lt;p style=&quot;margin:0px;margin-left:4px;&quot;&gt;+ bonus : IBonus { get; - set; }&lt;/p&gt;&lt;hr size=&quot;1&quot; style=&quot;border-style:solid;&quot;&gt;&lt;p style=&quot;margin:0px;margin-left:4px;&quot;&gt;+ calcBonus(number_hours: float) : float&lt;/p&gt;" style="verticalAlign=top;align=left;overflow=fill;html=1;whiteSpace=wrap;" parent="1" vertex="1">
          <mxGeometry x="300" y="240" width="200" height="90" as="geometry" />
        </mxCell>
        <mxCell id="IR6croPydO8HilPU1B2K-19" value="&lt;p style=&quot;margin:0px;margin-top:4px;text-align:center;&quot;&gt;&lt;b&gt;&amp;lt;&amp;lt;static&amp;gt;&amp;gt; Lec03Lib&lt;/b&gt;&lt;/p&gt;&lt;hr size=&quot;1&quot; style=&quot;border-style:solid;&quot;&gt;&lt;p style=&quot;margin:0px;margin-left:4px;&quot;&gt;+ getL1() : IFactory&lt;br&gt;+ getL2(A: float) : IFactory&lt;br&gt;+ getL3(A&lt;span style=&quot;background-color: initial;&quot;&gt;: float, B&lt;/span&gt;&lt;span style=&quot;background-color: initial;&quot;&gt;: float&lt;/span&gt;&lt;span style=&quot;background-color: initial;&quot;&gt;) : IFactory&lt;/span&gt;&lt;/p&gt;" style="verticalAlign=top;align=left;overflow=fill;html=1;whiteSpace=wrap;" parent="1" vertex="1">
          <mxGeometry x="810" y="190" width="200" height="90" as="geometry" />
        </mxCell>
        <mxCell id="IR6croPydO8HilPU1B2K-20" value="" style="endArrow=open;endFill=1;endSize=12;html=1;rounded=0;" parent="1" edge="1">
          <mxGeometry width="160" relative="1" as="geometry">
            <mxPoint x="500" y="284.57" as="sourcePoint" />
            <mxPoint x="610" y="285" as="targetPoint" />
          </mxGeometry>
        </mxCell>
        <mxCell id="IR6croPydO8HilPU1B2K-23" value="" style="endArrow=block;dashed=1;endFill=0;endSize=12;html=1;rounded=0;exitX=0.5;exitY=0;exitDx=0;exitDy=0;entryX=0.5;entryY=1;entryDx=0;entryDy=0;" parent="1" target="IR6croPydO8HilPU1B2K-1" edge="1" source="IR6croPydO8HilPU1B2K-8">
          <mxGeometry width="160" relative="1" as="geometry">
            <mxPoint x="669.74" y="447" as="sourcePoint" />
            <mxPoint x="669.74" y="387" as="targetPoint" />
          </mxGeometry>
        </mxCell>
        <mxCell id="IR6croPydO8HilPU1B2K-24" value="" style="endArrow=block;dashed=1;endFill=0;endSize=12;html=1;rounded=0;exitX=0.5;exitY=0;exitDx=0;exitDy=0;" parent="1" edge="1" source="IR6croPydO8HilPU1B2K-11">
          <mxGeometry width="160" relative="1" as="geometry">
            <mxPoint x="809.49" y="447" as="sourcePoint" />
            <mxPoint x="670" y="350" as="targetPoint" />
            <Array as="points">
              <mxPoint x="810" y="390" />
              <mxPoint x="670" y="390" />
              <mxPoint x="670" y="360" />
            </Array>
          </mxGeometry>
        </mxCell>
        <mxCell id="IR6croPydO8HilPU1B2K-25" value="" style="endArrow=block;dashed=1;endFill=0;endSize=12;html=1;rounded=0;exitX=0.5;exitY=0;exitDx=0;exitDy=0;entryX=0.5;entryY=1;entryDx=0;entryDy=0;" parent="1" source="IR6croPydO8HilPU1B2K-14" target="IR6croPydO8HilPU1B2K-1" edge="1">
          <mxGeometry width="160" relative="1" as="geometry">
            <mxPoint x="529.74" y="440" as="sourcePoint" />
            <mxPoint x="529.74" y="380" as="targetPoint" />
            <Array as="points">
              <mxPoint x="530" y="390" />
              <mxPoint x="580" y="390" />
              <mxPoint x="670" y="390" />
            </Array>
          </mxGeometry>
        </mxCell>
        <mxCell id="IR6croPydO8HilPU1B2K-26" value="" style="endArrow=none;dashed=1;endFill=0;endSize=12;html=1;rounded=0;" parent="1" edge="1">
          <mxGeometry width="160" relative="1" as="geometry">
            <mxPoint x="810" y="603" as="sourcePoint" />
            <mxPoint x="809.49" y="580" as="targetPoint" />
          </mxGeometry>
        </mxCell>
        <mxCell id="IR6croPydO8HilPU1B2K-27" value="" style="endArrow=none;dashed=1;endFill=0;endSize=12;html=1;rounded=0;exitX=0.5;exitY=0;exitDx=0;exitDy=0;" parent="1" source="IR6croPydO8HilPU1B2K-13" edge="1">
          <mxGeometry width="160" relative="1" as="geometry">
            <mxPoint x="809.75" y="750" as="sourcePoint" />
            <mxPoint x="809.75" y="730" as="targetPoint" />
          </mxGeometry>
        </mxCell>
        <mxCell id="IR6croPydO8HilPU1B2K-28" value="" style="endArrow=none;dashed=1;endFill=0;endSize=12;html=1;rounded=0;exitX=0.5;exitY=0;exitDx=0;exitDy=0;" parent="1" source="IR6croPydO8HilPU1B2K-10" edge="1">
          <mxGeometry width="160" relative="1" as="geometry">
            <mxPoint x="669.88" y="717" as="sourcePoint" />
            <mxPoint x="669.88" y="697" as="targetPoint" />
          </mxGeometry>
        </mxCell>
        <mxCell id="IR6croPydO8HilPU1B2K-29" value="" style="endArrow=none;dashed=1;endFill=0;endSize=12;html=1;rounded=0;exitX=0.5;exitY=0;exitDx=0;exitDy=0;" parent="1" source="IR6croPydO8HilPU1B2K-9" edge="1">
          <mxGeometry width="160" relative="1" as="geometry">
            <mxPoint x="669.88" y="580" as="sourcePoint" />
            <mxPoint x="669.88" y="560" as="targetPoint" />
          </mxGeometry>
        </mxCell>
        <mxCell id="IR6croPydO8HilPU1B2K-30" value="" style="endArrow=none;dashed=1;endFill=0;endSize=12;html=1;rounded=0;exitX=0.5;exitY=0;exitDx=0;exitDy=0;" parent="1" source="IR6croPydO8HilPU1B2K-15" edge="1">
          <mxGeometry width="160" relative="1" as="geometry">
            <mxPoint x="529.88" y="570" as="sourcePoint" />
            <mxPoint x="529.88" y="550" as="targetPoint" />
          </mxGeometry>
        </mxCell>
        <mxCell id="IR6croPydO8HilPU1B2K-31" value="" style="endArrow=none;dashed=1;endFill=0;endSize=12;html=1;rounded=0;exitX=0.5;exitY=0;exitDx=0;exitDy=0;" parent="1" source="IR6croPydO8HilPU1B2K-16" edge="1">
          <mxGeometry width="160" relative="1" as="geometry">
            <mxPoint x="529.88" y="688" as="sourcePoint" />
            <mxPoint x="529.88" y="668" as="targetPoint" />
          </mxGeometry>
        </mxCell>
        <mxCell id="IR6croPydO8HilPU1B2K-32" value="Use" style="endArrow=open;endSize=12;dashed=1;html=1;rounded=0;exitX=0.75;exitY=1;exitDx=0;exitDy=0;entryX=0;entryY=0.5;entryDx=0;entryDy=0;" parent="1" source="IR6croPydO8HilPU1B2K-19" target="IR6croPydO8HilPU1B2K-3" edge="1">
          <mxGeometry x="0.5556" width="160" relative="1" as="geometry">
            <mxPoint x="900" y="300" as="sourcePoint" />
            <mxPoint x="1060" y="300" as="targetPoint" />
            <Array as="points">
              <mxPoint x="960" y="385" />
            </Array>
            <mxPoint as="offset" />
          </mxGeometry>
        </mxCell>
        <mxCell id="IR6croPydO8HilPU1B2K-33" value="Use" style="endArrow=open;endSize=12;dashed=1;html=1;rounded=0;exitX=0.75;exitY=1;exitDx=0;exitDy=0;entryX=-0.001;entryY=0.469;entryDx=0;entryDy=0;entryPerimeter=0;" parent="1" source="IR6croPydO8HilPU1B2K-19" target="IR6croPydO8HilPU1B2K-4" edge="1">
          <mxGeometry x="0.7266" y="-1" width="160" relative="1" as="geometry">
            <mxPoint x="940" y="280" as="sourcePoint" />
            <mxPoint x="1010" y="390" as="targetPoint" />
            <Array as="points">
              <mxPoint x="960" y="410" />
              <mxPoint x="960" y="500" />
            </Array>
            <mxPoint as="offset" />
          </mxGeometry>
        </mxCell>
        <mxCell id="IR6croPydO8HilPU1B2K-34" value="Use" style="endArrow=open;endSize=12;dashed=1;html=1;rounded=0;exitX=0.75;exitY=1;exitDx=0;exitDy=0;entryX=0;entryY=0.592;entryDx=0;entryDy=0;entryPerimeter=0;" parent="1" source="IR6croPydO8HilPU1B2K-19" target="IR6croPydO8HilPU1B2K-5" edge="1">
          <mxGeometry x="0.8353" width="160" relative="1" as="geometry">
            <mxPoint x="955" y="527" as="sourcePoint" />
            <mxPoint x="1025" y="637" as="targetPoint" />
            <Array as="points">
              <mxPoint x="960" y="670" />
            </Array>
            <mxPoint as="offset" />
          </mxGeometry>
        </mxCell>
        <mxCell id="IR6croPydO8HilPU1B2K-35" value="" style="endArrow=none;dashed=1;endFill=0;endSize=12;html=1;rounded=0;exitX=0.454;exitY=-0.001;exitDx=0;exitDy=0;exitPerimeter=0;" parent="1" source="IR6croPydO8HilPU1B2K-4" edge="1">
          <mxGeometry width="160" relative="1" as="geometry">
            <mxPoint x="1225" y="450" as="sourcePoint" />
            <mxPoint x="1224.75" y="430" as="targetPoint" />
          </mxGeometry>
        </mxCell>
        <mxCell id="IR6croPydO8HilPU1B2K-36" value="" style="endArrow=none;dashed=1;endFill=0;endSize=12;html=1;rounded=0;exitX=0.423;exitY=-0.013;exitDx=0;exitDy=0;exitPerimeter=0;entryX=0.467;entryY=1.003;entryDx=0;entryDy=0;entryPerimeter=0;" parent="1" source="IR6croPydO8HilPU1B2K-5" target="IR6croPydO8HilPU1B2K-4" edge="1">
          <mxGeometry width="160" relative="1" as="geometry">
            <mxPoint x="1225.13" y="580" as="sourcePoint" />
            <mxPoint x="1224.88" y="563" as="targetPoint" />
          </mxGeometry>
        </mxCell>
        <mxCell id="IR6croPydO8HilPU1B2K-37" value="" style="endArrow=diamondThin;endFill=1;endSize=24;html=1;rounded=0;entryX=1;entryY=0.5;entryDx=0;entryDy=0;exitX=0.461;exitY=1.009;exitDx=0;exitDy=0;exitPerimeter=0;" parent="1" source="IR6croPydO8HilPU1B2K-13" edge="1">
          <mxGeometry width="160" relative="1" as="geometry">
            <mxPoint x="800" y="900" as="sourcePoint" />
            <mxPoint x="1505.0000000000002" y="641.9999999999999" as="targetPoint" />
            <Array as="points">
              <mxPoint x="805" y="900" />
              <mxPoint x="1550" y="900" />
              <mxPoint x="1550" y="642" />
            </Array>
          </mxGeometry>
        </mxCell>
        <mxCell id="IR6croPydO8HilPU1B2K-39" value="" style="endArrow=diamondThin;endFill=1;endSize=24;html=1;rounded=0;entryX=1;entryY=0.5;entryDx=0;entryDy=0;exitX=0.5;exitY=1;exitDx=0;exitDy=0;" parent="1" source="IR6croPydO8HilPU1B2K-10" edge="1">
          <mxGeometry width="160" relative="1" as="geometry">
            <mxPoint x="760" y="726" as="sourcePoint" />
            <mxPoint x="1460.0000000000002" y="499.9999999999999" as="targetPoint" />
            <Array as="points">
              <mxPoint x="670" y="940" />
              <mxPoint x="1580" y="940" />
              <mxPoint x="1580" y="500" />
            </Array>
          </mxGeometry>
        </mxCell>
        <mxCell id="IR6croPydO8HilPU1B2K-40" value="" style="endArrow=diamondThin;endFill=1;endSize=24;html=1;rounded=0;entryX=1;entryY=0.37;entryDx=0;entryDy=0;exitX=0.5;exitY=1;exitDx=0;exitDy=0;entryPerimeter=0;" parent="1" source="IR6croPydO8HilPU1B2K-16" target="IR6croPydO8HilPU1B2K-3" edge="1">
          <mxGeometry width="160" relative="1" as="geometry">
            <mxPoint x="715" y="613" as="sourcePoint" />
            <mxPoint x="1415.0000000000002" y="386.9999999999999" as="targetPoint" />
            <Array as="points">
              <mxPoint x="530" y="980" />
              <mxPoint x="1620" y="980" />
              <mxPoint x="1620" y="370" />
            </Array>
          </mxGeometry>
        </mxCell>
      </root>
    </mxGraphModel>
  </diagram>
</mxfile>
